<svg width="192" height="159" viewBox="0 0 192 159" fill="none"
  xmlns="http://www.w3.org/2000/svg">
  <path d="M172.907 158.984H18.674C8.377 158.984 0 150.607 0 140.311V60.62C0 50.323 8.377 41.946 18.674 41.946H44.037V26.182C44.037 24.525 45.38 23.182 47.037 23.182H73.038C73.172 10.706 83.362 0.598022 95.87 0.598022C108.378 0.598022 118.568 10.706 118.702 23.182H144.703C146.36 23.182 147.703 24.525 147.703 26.182V41.947H172.907C183.204 41.947 191.581 50.324 191.581 60.621V140.311C191.582 150.607 183.204 158.984 172.907 158.984ZM18.674 47.946C11.686 47.946 6 53.632 6 60.62V140.31C6 147.298 11.686 152.984 18.674 152.984H172.907C179.896 152.984 185.581 147.298 185.581 140.31V60.62C185.581 53.632 179.895 47.946 172.907 47.946H147.703V57.493C147.703 59.15 146.36 60.493 144.703 60.493H46.878C45.221 60.493 43.878 59.15 43.878 57.493V47.946H18.674V47.946ZM50.037 54.493H141.704V29.182H115.49C114.622 29.182 113.797 28.806 113.227 28.152C112.657 27.497 112.399 26.628 112.519 25.769C112.644 24.866 112.703 24.123 112.703 23.432C112.703 14.15 105.152 6.59902 95.87 6.59902C86.588 6.59902 79.037 14.15 79.037 23.432C79.037 24.122 79.096 24.866 79.221 25.771C79.34 26.63 79.081 27.499 78.512 28.153C77.943 28.807 77.117 29.183 76.25 29.183H50.037V54.493ZM152.3 133.008H107.107C105.45 133.008 104.107 131.665 104.107 130.008C104.107 128.351 105.45 127.008 107.107 127.008H152.3C153.957 127.008 155.3 128.351 155.3 130.008C155.3 131.665 153.957 133.008 152.3 133.008ZM77.556 133.008H28.868C27.211 133.008 25.868 131.665 25.868 130.008V113.103C25.868 105.429 32.111 99.186 39.785 99.186H44.223C41.904 96.291 40.476 92.361 40.476 88.039C40.476 79.164 46.493 71.944 53.89 71.944C61.286 71.944 67.303 79.164 67.303 88.039C67.303 92.362 65.875 96.292 63.556 99.186H66.64C74.313 99.186 80.557 105.429 80.557 113.103V130.008C80.556 131.665 79.212 133.008 77.556 133.008ZM31.868 127.008H74.556V113.103C74.556 108.738 71.005 105.186 66.639 105.186H39.785C35.42 105.186 31.868 108.738 31.868 113.103V127.008V127.008ZM53.889 77.944C49.87 77.944 46.475 82.567 46.475 88.039C46.475 93.511 49.87 98.133 53.889 98.133C57.907 98.133 61.302 93.51 61.302 88.039C61.302 82.568 57.907 77.944 53.889 77.944ZM141.95 122.598H107.106C105.449 122.598 104.106 121.255 104.106 119.598C104.106 117.941 105.449 116.598 107.106 116.598H141.95C143.607 116.598 144.95 117.941 144.95 119.598C144.95 121.255 143.607 122.598 141.95 122.598ZM164.955 94.342H107.106C105.449 94.342 104.106 92.999 104.106 91.342C104.106 89.685 105.449 88.342 107.106 88.342H164.955C166.612 88.342 167.955 89.685 167.955 91.342C167.955 92.999 166.612 94.342 164.955 94.342ZM151.703 84.335H107.106C105.449 84.335 104.106 82.992 104.106 81.335C104.106 79.678 105.449 78.335 107.106 78.335H151.703C153.36 78.335 154.703 79.678 154.703 81.335C154.703 82.992 153.36 84.335 151.703 84.335Z" fill="#F1A0E9"/>
</svg>
